:FULLY-SPECIFIED
:FORCE-ALL-JOINTS-BE-3DOF
:DEGREES
204
root 4.87732 15.059 -25.4293 7.07764 -1.63086 5.70066
lfemur 7.76387 -1.25168 0.614201
ltibia 5.81595 0 0
lfoot -35.9075 -12.7284 0
ltoes 46.8864 0 0
rfemur -31.1628 -19.4668 -8.84644
rtibia 50.5057 0 0
rfoot -26.478 17.8656 0
rtoes 60.1521 0 0
lowerback -3.53686 -1.59159 -0.388914
upperback -0.572166 -2.01307 -7.7479
thorax 1.12633 -1.01101 -7.97579
lowerneck -11.6857 0.40345 6.8474
upperneck 3.78247 -0.661226 2.53792
head 3.29318 -0.100511 -0.41573
lclavicle 9.93923e-17 -1.27222e-14 0
lhumerus -58.9313 -46.763 115.811
lradius 54.0188 0 0
lwrist 26.8256 0 0
lhand 39.9977 30.8286 0
lfingers 7.12502 0 0
lthumb 62.3933 41.8241 0
rclavicle 9.93923e-17 -1.27222e-14 0
rhumerus -3.26601 -12.1528 -11.388
rradius 53.9006 0 0
rwrist -23.879 0 0
rhand -21.1893 -49.6806 0
rfingers 7.12502 0 0
rthumb 5.19161 -439.597 0
205
root 4.85578 15.0566 -25.4458 7.16813 -1.46867 5.56849
lfemur 7.32889 -1.61566 0.829499
ltibia 6.20575 -0 0
lfoot -35.723 -12.4325 0.00285812
ltoes 47.0766 -0 0
rfemur -31.3409 -19.6655 -8.56901
rtibia 50.6885 -0 0
rfoot -26.6002 17.9082 -0.000272635
rtoes 60.1647 -0 0
lowerback -3.25411 -1.61022 -0.43585
upperback -0.587978 -2.05095 -7.61596
thorax 0.95348 -1.03403 -7.79586
lowerneck -11.5623 0.468998 6.80702
upperneck 3.70752 -0.548992 2.46938
head 3.24594 -0.0518704 -0.424026
lclavicle -0 0 0
lhumerus -59.0323 -46.5933 115.953
lradius 54.1848 -0 0
lwrist 26.6762 0 0
lhand 39.5187 30.5521 0.00693823
lfingers 0 -0 0
lthumb 61.9886 42.0101 -0.0039431
rclavicle -0 0 0
rhumerus -4.16832 -14.7535 -12.2324
rradius 56.3472 -0 0
rwrist -23.7274 0 0
rhand -25.5295 -51.5657 0.437454
rfingers 0 -0 0
rthumb 3.45293 -55.7951 -5.93367
206
root 4.83423 15.0542 -25.4624 7.25823 -1.30628 5.43659
lfemur 6.89245 -1.978 1.0476
ltibia 6.59556 -0 0
lfoot -35.5386 -12.1366 0.0047636
ltoes 47.2669 -0 0
rfemur -31.5202 -19.8634 -8.29058
rtibia 50.8713 -0 0
rfoot -26.7225 17.9508 -0.000454393
rtoes 60.1774 -0 0
lowerback -2.97134 -1.62861 -0.482877
upperback -0.603878 -2.08879 -7.48401
thorax 0.780557 -1.05651 -7.61587
lowerneck -11.439 0.534633 6.76679
upperneck 3.63244 -0.436847 2.4007
head 3.1987 -0.00323666 -0.432363
lclavicle -0 0 0
lhumerus -59.1323 -46.4235 116.094
lradius 54.3508 -0 0
lwrist 26.5268 0 0
lhand 39.0396 30.2755 0.0115641
lfingers 0 -0 0
lthumb 61.5838 42.1962 -0.00657196
rclavicle -0 0 0
rhumerus -5.04229 -17.3666 -13.0449
rradius 58.7938 -0 0
rwrist -23.5757 0 0
rhand -29.8819 -53.4785 0.73078
rfingers 0 -0 0
rthumb -0.592438 -31.4993 -10.6459
207
root 4.81269 15.0518 -25.4789 7.34796 -1.14368 5.30495
lfemur 6.45454 -2.33866 1.26851
ltibia 6.98536 -0 0
lfoot -35.3541 -11.8407 0.00571635
ltoes 47.4571 -0 0
rfemur -31.7007 -20.0604 -8.01114
rtibia 51.0541 -0 0
rfoot -26.8447 17.9934 -0.000545272
rtoes 60.19 -0 0
lowerback -2.68856 -1.64677 -0.529995
upperback -0.619865 -2.1266 -7.35204
thorax 0.607563 -1.07844 -7.43581
lowerneck -11.3157 0.600354 6.72669
upperneck 3.55723 -0.324793 2.33187
head 3.15144 0.0453902 -0.440739
lclavicle -0 0 0
lhumerus -59.2314 -46.2534 116.234
lradius 54.5168 -0 0
lwrist 26.3774 0 0
lhand 38.5605 29.9989 0.0138771
lfingers 0 -0 0
lthumb 61.1791 42.3823 -0.00788643
rclavicle -0 0 0
rhumerus -5.89036 -19.9912 -13.8276
rradius 61.2404 -0 0
rwrist -23.4241 0 0
rhand -34.242 -55.4083 0.877954
rfingers 0 -0 0
rthumb -6.31769 -6.6003 -13.2643
208
root 4.79115 15.0494 -25.4954 7.43731 -0.980875 5.17358
lfemur 6.01511 -2.69762 1.49223
ltibia 7.37516 -0 0
lfoot -35.1696 -11.5448 0.00571635
ltoes 47.6474 -0 0
rfemur -31.8825 -20.2566 -7.73069
rtibia 51.237 -0 0
rfoot -26.9669 18.036 -0.000545272
rtoes 60.2026 -0 0
lowerback -2.40576 -1.6647 -0.577203
upperback -0.63594 -2.16437 -7.22006
thorax 0.4345 -1.09983 -7.25568
lowerneck -11.1925 0.666162 6.68674
upperneck 3.48188 -0.212829 2.2629
head 3.10418 0.0940101 -0.449156
lclavicle -0 0 0
lhumerus -59.3296 -46.0832 116.374
lradius 54.6827 -0 0
lwrist 26.2281 0 0
lhand 38.0814 29.7222 0.0138771
lfingers 0 -0 0
lthumb 60.7743 42.5683 -0.00788643
rclavicle -0 0 0
rhumerus -6.71486 -22.6263 -14.5822
rradius 63.6869 -0 0
rwrist -23.2724 0 0
rhand -38.6046 -57.3436 0.877954
rfingers 0 -0 0
rthumb -12.6696 18.5703 -13.2643
209
root 4.76961 15.047 -25.5119 7.52628 -0.817865 5.04246
lfemur 5.57415 -3.05486 1.71877
ltibia 7.76496 -0 0
lfoot -34.9851 -11.2489 0.0047636
ltoes 47.8376 -0 0
rfemur -32.0656 -20.452 -7.44923
rtibia 51.4198 -0 0
rfoot -27.0891 18.0786 -0.000454393
rtoes 60.2152 -0 0
lowerback -2.12294 -1.6824 -0.624499
upperback -0.652102 -2.20211 -7.08807
thorax 0.261369 -1.12067 -7.07548
lowerneck -11.0693 0.732055 6.64692
upperneck 3.4064 -0.100957 2.19378
head 3.05692 0.142623 -0.457613
lclavicle -0 0 0
lhumerus -59.4269 -45.9129 116.512
lradius 54.8487 -0 0
lwrist 26.0787 0 0
lhand 37.6023 29.4456 0.0115641
lfingers 0 -0 0
lthumb 60.3696 42.7544 -0.00657196
rclavicle -0 0 0
rhumerus -7.51797 -25.2711 -15.3105
rradius 66.1335 -0 0
rwrist -23.1208 0 0
rhand -42.9647 -59.2734 0.73078
rfingers 0 -0 0
rthumb -18.3949 43.4693 -10.6459
210
root 4.74806 15.0446 -25.5285 7.61487 -0.654652 4.9116
lfemur 5.13161 -3.41033 1.94814
ltibia 8.15477 -0 0
lfoot -34.8007 -10.953 0.00285812
ltoes 48.0279 -0 0
rfemur -32.2499 -20.6465 -7.16673
rtibia 51.6026 -0 0
rfoot -27.2114 18.1212 -0.000272635
rtoes 60.2279 -0 0
lowerback -1.8401 -1.69986 -0.671882
upperback -0.668352 -2.2398 -6.95606
thorax 0.0881721 -1.14097 -6.89522
lowerneck -10.9462 0.798033 6.60725
upperneck 3.33078 0.010825 2.12451
head 3.00964 0.191229 -0.46611
lclavicle -0 0 0
lhumerus -59.5234 -45.7424 116.65
lradius 55.0147 -0 0
lwrist 25.9293 0 0
lhand 37.1232 29.169 0.00693823
lfingers 0 -0 0
lthumb 59.9648 42.9405 -0.0039431
rclavicle -0 0 0
rhumerus -8.30179 -27.9249 -16.0138
rradius 68.5801 -0 0
rwrist -22.9691 0 0
rhand -47.3171 -61.1862 0.437454
rfingers 0 -0 0
rthumb -22.4402 67.7651 -5.93367
211
root 4.72652 15.0422 -25.545 7.70309 -0.491237 4.781
lfemur 4.68749 -3.76403 2.18034
ltibia 8.54457 0 0
lfoot -34.6162 -10.6571 0
ltoes 48.2181 0 0
rfemur -32.4355 -20.8402 -6.88321
rtibia 51.7854 0 0
rfoot -27.3336 18.1638 0
rtoes 60.2405 0 0
lowerback -1.55725 -1.71709 -0.719351
upperback -0.684689 -2.27746 -6.82404
thorax -0.0850889 -1.16073 -6.7149
lowerneck -10.8231 0.864097 6.56772
upperneck 3.25503 0.122515 2.05509
head 2.96236 0.239828 -0.474647
lclavicle 1.98785e-16 1.43125e-14 0
lhumerus -59.6189 -45.5717 116.787
lradius 55.1807 0 0
lwrist 25.7799 0 0
lhand 36.6442 28.8925 0
lfingers 7.12502 0 0
lthumb 59.5601 43.1265 0
rclavicle 1.98785e-16 1.43125e-14 0
rhumerus -9.06837 -30.5869 -16.6934
rradius 71.0267 0 0
rwrist -22.8175 0 0
rhand -51.6573 -63.0713 0
rfingers 7.12502 0 0
rthumb -24.1789 -628.433 0
212
root 4.71499 15.0598 -25.567 7.77397 -0.252496 4.24519
lfemur 3.31807 -2.42585 2.95097
ltibia 10.5453 -0 0
lfoot -33.1785 -10.6623 -0.000394807
ltoes 47.2655 -0 0
rfemur -32.3474 -20.6518 -6.19485
rtibia 51.4908 -0 0
rfoot -27.434 17.859 0.00160226
rtoes 60.158 -0 0
lowerback -1.37026 -1.93338 -0.627007
upperback -0.546257 -2.56519 -6.40851
thorax -0.0567474 -1.30283 -6.32595
lowerneck -10.917 1.09532 6.38946
upperneck 3.2077 0.458457 1.90497
head 2.97089 0.396972 -0.471915
lclavicle 0 0 0
lhumerus -59.5631 -45.1616 116.897
lradius 55.4469 -0 0
lwrist 26.1769 0 0
lhand 34.1904 28.0314 0.111329
lfingers 0 -0 0
lthumb 57.3419 43.6363 -0.059493
rclavicle 0 0 0
rhumerus -9.56024 -25.736 -18.56
rradius 74.4543 -0 0
rwrist -19.7722 0 0
rhand -48.6286 -59.0635 0.650927
rfingers 0 -0 0
rthumb -22.5933 69.4966 -3.75774
